<?xml version="1.0" encoding="utf-8"?>
<svg viewBox="687.55 435.998 224.857 158.657" width="224.857" height="158.657" xmlns="http://www.w3.org/2000/svg">
  <path stroke="rgb(255,0,0)" opacity="0.996078431372549" d="M 717.004 436.29 C 719.701 435.867 721.906 435.937 724.437 436.29 C 727.082 436.659 730.165 437.479 732.545 438.557 C 734.683 439.526 736.328 440.633 738.176 442.242 C 740.201 444.006 742.392 446.117 744.145 448.904 C 746.086 451.989 748.167 457.194 749.101 460.242 C 749.763 462.406 749.837 463.545 750.002 465.627 C 750.199 468.138 750.357 471.804 750.002 474.415 C 749.684 476.747 749.093 478.719 748.199 480.651 C 747.275 482.651 746.084 484.678 744.483 486.178 C 742.736 487.814 740.636 488.813 737.951 489.863 C 734.557 491.188 730.127 492.345 725.337 492.981 C 719.693 493.73 710.956 494.069 705.967 493.547 C 702.337 493.168 699.832 492.6 697.408 491.28 C 695.219 490.087 693.403 488.605 691.89 486.319 C 690.213 483.788 688.743 479.477 688.06 476.398 C 687.479 473.776 687.533 470.228 687.61 469.029 C 687.643 468.513 687.585 468.593 687.615 468.178 C 687.664 467.495 687.45 466.448 687.61 465.061 C 687.86 462.889 688.757 458.907 690.087 455.99 C 691.546 452.792 693.668 449.452 696.282 446.778 C 699.15 443.843 703.31 441.168 706.868 439.408 C 710.221 437.749 713.913 436.775 717.004 436.29 Z" style="fill-opacity: 1; fill-rule: nonzero; stroke: rgb(0, 0, 0); stroke-dasharray: none; stroke-dashoffset: 0px; stroke-linecap: butt; stroke-linejoin: miter; stroke-miterlimit: 4; stroke-opacity: 1; paint-order: normal; vector-effect: none; opacity: 1; mix-blend-mode: normal; isolation: auto; stroke-width: 0; fill: rgb(214, 28, 28);"/>
  <path stroke="rgb(255,0,0)" opacity="0.9882352941176471" d="M 719.505 442.233 C 723.817 442.75 729.18 441.958 733.008 444.601 C 734.224 445.44 737.477 448.293 739.104 451.673 C 741.303 456.241 740.677 456.41 740.626 458.576 C 740.563 461.261 739.321 463.939 737.507 465.199 C 735.157 466.829 731.378 464.331 728.302 464.331 C 721.1 464.332 713.87 464.231 706.706 465.2 C 704.163 465.544 702.731 468.034 699.571 467.09 C 698.803 466.861 695.605 467.757 694.694 464.196 C 693.534 459.665 693.478 459.768 694.652 455.514 C 695.763 451.49 697.068 448.864 700.531 446.711 C 704.736 444.096 704.195 444.974 708.776 443.876 C 710.968 443.351 717.286 441.967 719.505 442.233 Z M 735.661 468.479 C 736.158 468.515 737.254 468.923 737.644 469.62 C 738.06 470.364 738.018 471.579 737.961 472.938 C 737.885 474.763 737.379 477.625 736.851 479.781 C 736.338 481.869 735.658 484.78 734.868 485.692 C 734.343 486.297 733.624 486.252 733.123 486.106 C 732.656 485.971 732.187 485.519 731.933 484.966 C 731.65 484.35 731.525 483.427 731.615 482.477 C 731.729 481.284 732.52 480.033 732.885 478.33 C 733.35 476.156 733.516 471.727 733.995 470.242 C 734.254 469.439 734.562 469.189 734.868 468.894 C 735.122 468.648 735.318 468.454 735.661 468.479 Z M 697.339 469.802 C 697.675 469.705 698.214 469.605 698.608 469.802 C 699.038 470.017 699.48 470.285 699.798 471.15 C 700.362 472.681 700.039 477.367 700.75 479.653 C 701.359 481.612 702.731 483.413 703.447 484.319 C 703.886 484.874 704.318 484.784 704.557 485.252 C 704.817 485.759 704.988 486.692 704.874 487.326 C 704.758 487.972 704.253 488.73 703.843 489.089 C 703.474 489.412 703.047 489.589 702.574 489.503 C 701.989 489.397 701.304 488.991 700.591 488.155 C 699.54 486.923 697.869 484.044 697.101 481.934 C 696.407 480.028 696.167 477.961 695.991 476.127 C 695.829 474.452 695.757 472.343 695.991 471.357 C 696.137 470.741 696.457 470.48 696.704 470.217 C 696.909 469.998 697.073 469.879 697.339 469.802 Z M 709.967 470.478 C 710.473 470.481 711.782 470.617 712.267 471.619 C 712.986 473.098 712.164 477.476 712.585 480.122 C 712.986 482.643 714.753 485.749 714.647 487.173 C 714.584 488.019 714.051 488.434 713.616 488.728 C 713.179 489.024 712.48 489.082 712.029 488.935 C 711.621 488.802 711.211 488.228 710.998 488.002 C 710.874 487.869 710.887 487.844 710.76 487.691 C 710.526 487.409 709.904 487.138 709.571 486.343 C 709.04 485.077 708.649 482.148 708.46 479.914 C 708.264 477.593 708.163 474.171 708.46 472.656 C 708.641 471.733 709.041 471.251 709.333 470.893 C 709.544 470.635 709.66 470.477 709.967 470.478 Z M 720.328 471.048 C 720.833 471.027 722.151 471.087 722.628 471.982 C 723.287 473.218 723.071 476.825 722.945 479.033 C 722.829 481.092 722.554 483.004 721.994 484.84 C 721.425 486.706 720.285 489.324 719.535 490.128 C 719.087 490.609 718.711 490.644 718.266 490.543 C 717.742 490.424 716.92 489.726 716.6 489.195 C 716.341 488.764 716.206 488.427 716.283 487.743 C 716.416 486.552 717.89 484.532 718.345 482.351 C 718.893 479.727 718.587 474.472 718.98 472.811 C 719.173 471.992 719.44 471.759 719.693 471.463 C 719.895 471.228 720.018 471.062 720.328 471.048 Z" style="fill-opacity: 1; fill-rule: nonzero; stroke: rgb(0, 0, 0); stroke-dasharray: none; stroke-dashoffset: 0px; stroke-linecap: butt; stroke-linejoin: miter; stroke-miterlimit: 4; stroke-opacity: 1; paint-order: normal; vector-effect: none; opacity: 1; mix-blend-mode: normal; isolation: auto; fill: rgb(255, 255, 255); stroke-width: 0;"/>
  <path stroke="rgb(255,0,0)" opacity="0.9686274509803922" d="M 722.34 459.063 C 722.466 458.887 730.085 460.14 731.502 460.508 C 732.834 460.855 735.827 459.129 736.672 459.431 C 737.206 459.622 737.454 459.925 737.703 460.364 C 737.971 460.838 738.066 462.841 738.003 463.478 C 737.933 464.186 734.332 464.006 733.672 464.472 C 732.731 465.139 722.082 459.419 722.34 459.063 Z M 724.964 442.45 C 725.082 441.726 730.988 445.275 731.783 446.603 C 732.714 448.16 730.704 449.451 729.854 449.391 C 728.557 449.299 726.498 446.434 725.353 446.522 C 724.675 446.574 721.428 450.077 720.97 450.013 C 720.572 449.958 719.642 447.649 719.395 447.21 C 719.064 446.623 724.829 443.276 724.964 442.45 Z" style="fill-opacity: 1; fill-rule: nonzero; stroke: rgb(0, 0, 0); stroke-dasharray: none; stroke-dashoffset: 0px; stroke-linecap: butt; stroke-linejoin: miter; stroke-miterlimit: 4; stroke-opacity: 1; paint-order: normal; vector-effect: none; opacity: 1; mix-blend-mode: normal; isolation: auto; stroke-width: 0;"/>
  <path stroke="rgb(255,0,0)" opacity="0.9686274509803922" d="M 699.98 449.769 C 700.106 449.944 707.839 448.17 709.256 447.801 C 710.587 447.455 713.58 449.181 714.426 448.879 C 714.959 448.688 715.208 448.385 715.457 447.945 C 715.725 447.472 715.82 445.468 715.756 444.832 C 715.687 444.124 712.086 444.304 711.426 443.837 C 710.484 443.171 699.722 449.413 699.98 449.769 Z M 703.203 465.618 C 705.17 465.604 710.47 463.318 711.265 461.991 C 712.197 460.434 709.635 458.859 708.785 458.919 C 707.489 459.011 705.716 462.099 704.57 462.01 C 703.893 461.958 700.396 459.043 699.939 459.107 C 699.541 459.162 697.823 461.815 697.576 462.254 C 697.245 462.841 702.558 465.623 703.203 465.618 Z" style="fill-opacity: 1; fill-rule: nonzero; stroke: rgb(0, 0, 0); stroke-dasharray: none; stroke-dashoffset: 0px; stroke-linecap: butt; stroke-linejoin: miter; stroke-miterlimit: 4; stroke-opacity: 1; paint-order: normal; vector-effect: none; opacity: 1; mix-blend-mode: normal; isolation: auto; stroke-width: 0;" transform="matrix(-1, 0, 0, -1, 1413.336365, 909.405334)"/>
  <path stroke="rgb(255,0,0)" d="M 706.874 450.771 C 707.29 450.634 707.934 450.545 708.387 450.771 C 708.83 450.991 709.309 451.429 709.57 452.076 C 709.858 452.79 710.05 454.085 709.949 454.993 C 709.846 455.903 709.487 457.032 708.955 457.526 C 708.34 458.097 706.823 457.977 706.306 457.833 C 706.022 457.754 705.945 457.648 705.786 457.372 C 705.572 457.003 705.318 456.287 705.218 455.607 C 705.107 454.85 705.064 453.72 705.218 452.997 C 705.358 452.337 705.725 451.76 706.022 451.385 C 706.284 451.054 706.53 450.883 706.874 450.771 Z M 727.131 450.78 C 727.479 450.67 727.834 450.721 728.171 450.934 C 728.545 451.17 729.014 451.583 729.259 452.239 C 729.548 453.009 729.754 454.678 729.638 455.463 C 729.548 456.072 729.203 456.398 728.928 456.768 C 728.651 457.142 728.378 457.502 727.982 457.689 C 727.501 457.917 726.638 458.054 726.185 457.843 C 725.825 457.675 725.574 457.377 725.38 456.845 C 725.129 456.156 724.879 454.651 725.002 453.774 C 725.117 452.956 725.62 452.207 725.995 451.701 C 726.337 451.242 726.754 450.899 727.131 450.78 Z M 716.902 460.492 C 717.593 460.373 719.361 460.411 719.95 460.678 C 720.42 460.891 722.57 462.172 722.798 462.686 C 723.017 463.18 722.368 463.179 722.326 463.759 C 722.284 464.329 719.76 462.073 719.429 461.882 C 719.005 461.639 718.021 461.547 717.649 461.69 C 716.952 461.959 716.632 462.022 715.937 462.47 C 715.086 463.018 714.46 464.67 714.265 464.243 C 714.047 463.762 713.363 463.792 713.412 463.148 C 713.463 462.486 714.579 461.901 714.949 461.477 C 715.355 461.012 716.281 460.6 716.902 460.492 Z" style="stroke: rgb(129, 151, 57); stroke-width: 0;"/>
</svg>