<?xml version="1.0" encoding="utf-8"?>
<svg viewBox="347.761 438.276 62.65 57.8" width="62.65px" height="57.8px" xmlns="http://www.w3.org/2000/svg" xmlns:bx="https://boxy-svg.com">
  <path stroke="rgb(255,0,0)" opacity="0.996078431372549" d="M 377.202 438.568 C 379.899 438.145 382.104 438.214 384.635 438.568 C 387.28 438.937 390.363 439.757 392.743 440.835 C 394.88 441.803 396.526 442.911 398.374 444.52 C 400.399 446.283 402.59 448.394 404.343 451.182 C 406.284 454.267 408.365 459.472 409.298 462.519 C 409.961 464.684 410.035 465.822 410.199 467.905 C 410.397 470.416 410.554 474.082 410.199 476.692 C 409.882 479.025 409.291 480.997 408.397 482.928 C 407.472 484.928 406.281 486.956 404.681 488.455 C 402.934 490.092 400.834 491.091 398.149 492.14 C 394.755 493.466 390.325 494.622 385.535 495.258 C 379.891 496.007 371.154 496.347 366.165 495.825 C 362.535 495.445 360.029 494.878 357.606 493.557 C 355.416 492.365 353.6 490.882 352.087 488.597 C 350.411 486.065 348.94 481.754 348.258 478.676 C 347.677 476.054 347.731 472.506 347.807 471.306 C 347.84 470.791 348.003 470.87 348.033 470.456 C 348.081 469.773 347.648 468.726 347.807 467.338 C 348.058 465.167 348.955 461.185 350.285 458.268 C 351.743 455.069 353.866 451.729 356.48 449.055 C 359.348 446.121 363.508 443.445 367.066 441.685 C 370.419 440.027 374.111 439.052 377.202 438.568 Z" style="fill-opacity: 1; fill-rule: nonzero; stroke: rgb(0, 0, 0); stroke-dasharray: none; stroke-dashoffset: 0px; stroke-linecap: butt; stroke-linejoin: miter; stroke-miterlimit: 4; stroke-opacity: 1; paint-order: normal; vector-effect: none; opacity: 1; mix-blend-mode: normal; isolation: auto; fill: rgb(211, 174, 88); stroke-width: 0;"/>
  <path stroke="rgb(255,0,0)" opacity="0.9921568627450981" d="M 388.52 465.016 C 390.5 465.528 394.063 467.898 394.832 470.902 C 399.433 488.864 397.087 488.864 392.579 493.064 C 388.902 496.491 383.053 495.73 378.815 495.959 C 374.689 496.183 368.354 496.546 364.047 492.138 C 360.626 488.637 360.542 482.7 364.443 470.487 C 365.16 468.242 367.429 466.197 368.967 465.795 C 377.047 463.684 380.437 462.926 388.52 465.016 Z" style="fill-opacity: 1; fill-rule: nonzero; stroke: rgb(0, 0, 0); stroke-dasharray: none; stroke-dashoffset: 0px; stroke-linecap: butt; stroke-linejoin: miter; stroke-miterlimit: 4; stroke-opacity: 1; paint-order: normal; vector-effect: none; opacity: 1; mix-blend-mode: normal; isolation: auto; fill: rgb(254, 246, 227); stroke-width: 0;"/>
  <path stroke="rgb(255,0,0)" d="M 368.054 473.62 C 368.471 473.484 369.114 473.395 369.568 473.62 C 370.011 473.84 370.489 474.279 370.751 474.925 C 371.039 475.639 371.231 476.935 371.129 477.842 C 371.027 478.752 370.668 479.882 370.136 480.376 C 369.521 480.946 368.003 480.827 367.487 480.683 C 367.203 480.604 367.126 480.498 366.966 480.222 C 366.752 479.853 366.498 479.136 366.398 478.456 C 366.287 477.699 366.245 476.57 366.398 475.846 C 366.539 475.187 366.906 474.61 367.203 474.234 C 367.464 473.904 367.711 473.732 368.054 473.62 Z M 388.311 473.63 C 388.659 473.52 389.015 473.57 389.352 473.783 C 389.726 474.019 390.194 474.433 390.44 475.088 C 390.728 475.858 390.935 477.527 390.819 478.312 C 390.727 478.922 390.382 479.248 390.109 479.617 C 389.832 479.992 389.558 480.351 389.162 480.539 C 388.682 480.767 387.818 480.903 387.366 480.692 C 387.005 480.525 386.754 480.227 386.561 479.694 C 386.31 479.005 386.06 477.501 386.182 476.623 C 386.298 475.806 386.799 475.057 387.176 474.551 C 387.518 474.092 387.935 473.749 388.311 473.63 Z M 378.083 483.342 C 378.774 483.222 379.766 483.075 380.354 483.342 C 380.824 483.555 381.214 483.979 381.442 484.493 C 381.66 484.987 381.768 485.755 381.726 486.336 C 381.684 486.906 381.424 487.571 381.205 487.948 C 381.017 488.27 380.914 488.419 380.543 488.562 C 379.844 488.831 377.596 489.002 376.853 488.715 C 376.42 488.548 376.243 488.298 376.049 487.871 C 375.829 487.39 375.621 486.519 375.67 485.875 C 375.721 485.213 376.01 484.38 376.38 483.956 C 376.786 483.49 377.462 483.45 378.083 483.342 Z" style="stroke: rgb(129, 151, 57); stroke-width: 0;"/>
  <path d="M 363.713 477.576 C 364.054 480.068 354.394 468.652 355.755 467.373 C 357.15 466.063 359.789 464.693 361.399 464.817 C 363.592 464.986 364.568 464.809 366.664 468.38" style="stroke: rgb(0, 0, 0); fill: rgb(254, 246, 227); stroke-width: 0;" bx:origin="0.493 0.508"/>
  <path d="M 399.097 464.954 C 399.437 462.462 389.777 473.877 391.138 475.156 C 392.533 476.467 395.173 477.837 396.783 477.713 C 398.976 477.544 399.951 477.721 402.048 474.149" style="stroke: rgb(0, 0, 0); fill: rgb(254, 246, 227); stroke-width: 0;" transform="matrix(-1, 0, 0, -1, 792.899902, 942.530212)" bx:origin="0.493 0.508"/>
  <path d="M 363.17 457.321 C 362.941 456.235 361.579 451.674 360.655 451.674" style="fill: rgb(216, 216, 216); stroke-width: 1.286; stroke: rgb(90, 70, 49);"/>
  <path d="M 370.677 458.633 C 370.5 456.039 369.138 452.598 369.299 451.03" style="fill: rgb(216, 216, 216); stroke-width: 1.286; stroke: rgb(90, 70, 49);"/>
  <path d="M 379.136 452.598 C 379.136 450.27 379.136 447.942 379.136 445.615" style="fill: rgb(216, 216, 216); stroke-width: 1.286; stroke: rgb(90, 70, 49);"/>
  <path d="M 388.771 461.038 C 388.771 458.522 389.407 455.813 389.407 454.401" style="fill: rgb(216, 216, 216); stroke-width: 1.286; stroke: rgb(90, 70, 49);"/>
  <path d="M 384.431 451.25 C 384.431 450.045 386.227 442.675 386.322 441.078" style="fill: rgb(216, 216, 216); stroke-width: 1.286; stroke: rgb(90, 70, 49);"/>
  <path d="M 395.483 461.05 C 396.045 459.8 397.94 457.27 397.94 456.22" style="fill: rgb(216, 216, 216); stroke-width: 1.286; stroke: rgb(90, 70, 49);"/>
  <path d="M 393.217 451.175 C 393.217 449.253 394.384 446.973 394.384 446.599" style="fill: rgb(216, 216, 216); stroke-width: 1.286; stroke: rgb(90, 70, 49);"/>
  <path d="M 402.171 461.753 C 404.018 461.753 404.774 459.158 406.228 459.158" style="fill: rgb(216, 216, 216); stroke-width: 1.286; stroke: rgb(90, 70, 49);"/>
  <path d="M 400.29 479.743 C 401.487 479.743 402.802 479.882 403.94 479.882" style="fill: rgb(216, 216, 216); stroke-width: 1.286; stroke: rgb(90, 70, 49);"/>
  <path d="M 402.59 474.078 C 403.346 474.078 406.67 474.628 407.296 473.797" style="fill: rgb(216, 216, 216); stroke-width: 1.286; stroke: rgb(90, 70, 49);"/>
  <path d="M 404.468 467.831 C 404.653 467.406 406.502 465.339 406.502 465.199" style="fill: rgb(216, 216, 216); stroke-width: 1.286; stroke: rgb(90, 70, 49);"/>
  <path d="M 398.493 487.463 C 399.554 487.797 402.309 489.937 402.309 488.296" style="stroke-width: 1.286; stroke: rgb(90, 70, 49); fill: none;"/>
  <path d="M 358.853 487.362 C 357.092 487.362 356.206 487.678 354.957 489.288" style="fill: rgb(216, 216, 216); stroke-width: 1.286; stroke: rgb(90, 70, 49);"/>
  <path d="M 374.533 451.62 C 374.102 450.015 372.711 446.809 372.439 444.855 C 372.359 444.278 373.794 443.593 372.291 441.478" style="fill: rgb(216, 216, 216); stroke-width: 1.286; stroke: rgb(90, 70, 49);"/>
  <path d="M 376.965 459.85 C 376.535 459.452 373.97 455.652 373.794 455.652" style="fill: rgb(216, 216, 216); stroke-width: 1.286; stroke: rgb(90, 70, 49);"/>
  <path d="M 357.281 460.048 C 356.324 459.184 354.503 457.479 353.486 457.479" style="fill: rgb(216, 216, 216); stroke-width: 1.286; stroke: rgb(90, 70, 49);"/>
  <path d="M 354.326 469.643 C 352.668 469.643 349.363 467.892 349.363 470.058" style="stroke-width: 1.286; stroke: rgb(90, 70, 49); fill: none;"/>
  <path d="M 354.739 476.576 C 353.362 476.67 352.248 476.951 350.661 477.481" style="fill: rgb(216, 216, 216); stroke-width: 1.286; stroke: rgb(90, 70, 49);"/>
  <path d="M 354.117 482.608 C 355.579 481.549 356.916 480.755 358.609 480.755" style="fill: rgb(216, 216, 216); stroke-width: 1.286; stroke: rgb(90, 70, 49);"/>
</svg>