<?xml version="1.0" encoding="utf-8"?>
<svg viewBox="1253.487 442.25 224.808 158.657" width="224.808" height="158.657" xmlns="http://www.w3.org/2000/svg" xmlns:bx="https://boxy-svg.com">
  <path opacity="0.996078431372549" d="M 450.895 438.568 C 453.592 438.145 455.797 438.214 458.327 438.568 C 460.972 438.937 464.056 439.757 466.436 440.835 C 468.573 441.803 470.219 442.911 472.067 444.52 C 474.092 446.283 476.282 448.394 478.035 451.182 C 479.977 454.267 482.058 459.472 482.992 462.519 C 483.654 464.684 483.728 465.822 483.892 467.905 C 484.09 470.416 484.247 474.082 483.892 476.692 C 483.575 479.025 482.983 480.997 482.09 482.928 C 481.165 484.928 479.975 486.956 478.374 488.455 C 476.627 490.092 474.527 491.091 471.842 492.14 C 468.448 493.466 464.018 494.622 459.228 495.258 C 453.584 496.007 444.847 496.347 439.857 495.825 C 436.228 495.445 433.722 494.878 431.298 493.557 C 429.109 492.365 427.294 490.882 425.78 488.597 C 424.103 486.065 422.634 481.754 421.951 478.676 C 421.369 476.054 421.424 472.506 421.501 471.306 C 421.534 470.791 421.696 470.87 421.726 470.456 C 421.775 469.773 421.34 468.726 421.501 467.338 C 421.751 465.167 422.647 461.185 423.978 458.268 C 425.436 455.069 427.559 451.729 430.172 449.055 C 433.04 446.121 437.201 443.445 440.758 441.685 C 444.112 440.027 447.804 439.052 450.895 438.568 Z" style="fill-opacity: 1; fill-rule: nonzero; stroke-dasharray: none; stroke-dashoffset: 0px; stroke-linecap: butt; stroke-linejoin: miter; stroke-miterlimit: 4; stroke-opacity: 1; paint-order: normal; vector-effect: none; opacity: 1; mix-blend-mode: normal; isolation: auto; stroke-width: 0; stroke: rgb(0, 0, 0); fill: rgb(120, 110, 87);" transform="matrix(1, 0, 0, 1, 913.638904, 31.833392)"/>
  <path stroke="rgb(255,0,0)" opacity="0.9921568627450981" d="M 462.213 465.016 C 464.193 465.528 467.756 467.898 468.526 470.902 C 473.126 488.864 470.781 488.864 466.273 493.064 C 462.595 496.491 456.746 495.73 452.507 495.959 C 448.382 496.183 442.047 496.546 437.739 492.138 C 434.318 488.637 434.234 482.7 438.136 470.487 C 438.854 468.242 441.121 466.197 442.66 465.795 C 450.74 463.684 454.131 462.926 462.213 465.016 Z" style="fill-opacity: 1; fill-rule: nonzero; stroke: rgb(0, 0, 0); stroke-dasharray: none; stroke-dashoffset: 0px; stroke-linecap: butt; stroke-linejoin: miter; stroke-miterlimit: 4; stroke-opacity: 1; paint-order: normal; vector-effect: none; opacity: 1; mix-blend-mode: normal; isolation: auto; fill: rgb(254, 246, 227); stroke-width: 0;" transform="matrix(1, 0, 0, 1, 913.638904, 31.833392)"/>
  <path stroke="rgb(255,0,0)" d="M 441.747 473.62 C 442.164 473.484 442.808 473.395 443.261 473.62 C 443.704 473.84 444.182 474.279 444.443 474.925 C 444.732 475.639 444.924 476.935 444.822 477.842 C 444.72 478.752 444.361 479.882 443.828 480.376 C 443.214 480.946 441.696 480.827 441.18 480.683 C 440.895 480.604 440.819 480.498 440.659 480.222 C 440.446 479.853 440.191 479.136 440.091 478.456 C 439.981 477.699 439.938 476.57 440.091 475.846 C 440.231 475.187 440.599 474.61 440.895 474.234 C 441.158 473.904 441.404 473.732 441.747 473.62 Z M 462.004 473.63 C 462.352 473.52 462.707 473.57 463.045 473.783 C 463.419 474.019 463.888 474.433 464.133 475.088 C 464.421 475.858 464.628 477.527 464.511 478.312 C 464.421 478.922 464.076 479.248 463.802 479.617 C 463.525 479.992 463.251 480.351 462.856 480.539 C 462.375 480.767 461.512 480.903 461.058 480.692 C 460.698 480.525 460.448 480.227 460.254 479.694 C 460.003 479.005 459.752 477.501 459.875 476.623 C 459.99 475.806 460.493 475.057 460.869 474.551 C 461.21 474.092 461.628 473.749 462.004 473.63 Z M 451.776 483.342 C 452.467 483.222 453.458 483.075 454.046 483.342 C 454.517 483.555 454.906 483.979 455.135 484.493 C 455.353 484.987 455.46 485.755 455.419 486.336 C 455.377 486.906 455.117 487.571 454.898 487.948 C 454.71 488.27 454.607 488.419 454.236 488.562 C 453.538 488.831 451.29 489.002 450.546 488.715 C 450.112 488.548 449.936 488.298 449.742 487.871 C 449.523 487.39 449.314 486.519 449.363 485.875 C 449.414 485.213 449.703 484.38 450.073 483.956 C 450.48 483.49 451.154 483.45 451.776 483.342 Z" style="stroke: rgb(129, 151, 57); stroke-width: 0;" transform="matrix(1, 0, 0, 1, 913.638904, 31.833392)"/>
  <path d="M 437.406 477.576 C 437.747 480.068 428.086 468.652 429.447 467.373 C 430.842 466.063 433.481 464.693 435.092 464.817 C 437.285 464.986 438.26 464.809 440.357 468.38" style="stroke: rgb(0, 0, 0); fill: rgb(254, 246, 227); stroke-width: 0;" transform="matrix(1, 0, 0, 1, 913.638904, 31.833392)" bx:origin="0.493 0.508"/>
  <path d="M 472.789 464.954 C 473.131 462.462 463.47 473.877 464.831 475.156 C 466.226 476.467 468.865 477.837 470.476 477.713 C 472.669 477.544 473.644 477.721 475.741 474.149" style="stroke: rgb(0, 0, 0); fill: rgb(254, 246, 227); stroke-width: 0;" transform="matrix(-1, 0, 0, -1, 1853.924793, 974.363604)" bx:origin="0.493 0.508"/>
  <path d="M 436.863 457.321 C 436.634 456.235 435.272 451.673 434.347 451.673" style="stroke: rgb(0, 0, 0); stroke-width: 1.286; fill: none;" transform="matrix(1, 0, 0, 1, 913.638904, 31.833392)"/>
  <path d="M 444.37 458.633 C 444.192 456.039 442.991 448.426 442.991 451.03" style="stroke: rgb(0, 0, 0); stroke-width: 1.286; fill: none;" transform="matrix(1, 0, 0, 1, 913.638904, 31.833392)"/>
  <path d="M 452.829 452.598 C 452.829 450.27 452.829 447.942 452.829 445.615" style="stroke: rgb(0, 0, 0); stroke-width: 1.286; fill: none;" transform="matrix(1, 0, 0, 1, 913.638904, 31.833392)"/>
  <path d="M 462.463 461.038 C 462.463 458.522 463.1 455.813 463.1 454.401" style="stroke: rgb(0, 0, 0); stroke-width: 1.286; fill: none;" transform="matrix(1, 0, 0, 1, 913.638904, 31.833392)"/>
  <path d="M 458.124 451.25 C 458.124 450.045 459.729 441.078 460.015 441.078" style="stroke: rgb(0, 0, 0); stroke-width: 1.286; fill: none;" transform="matrix(1, 0, 0, 1, 913.638904, 31.833392)"/>
  <path d="M 469.176 461.05 C 469.738 459.8 471.634 457.27 471.634 456.22" style="stroke: rgb(0, 0, 0); stroke-width: 1.286; fill: none;" transform="matrix(1, 0, 0, 1, 913.638904, 31.833392)"/>
  <path d="M 466.911 451.175 C 466.911 449.253 468.077 446.973 468.077 446.598" style="stroke: rgb(0, 0, 0); stroke-width: 1.286; fill: none;" transform="matrix(1, 0, 0, 1, 913.638904, 31.833392)"/>
  <path d="M 475.864 461.753 C 477.711 461.753 478.468 459.158 479.92 459.158" style="stroke: rgb(0, 0, 0); stroke-width: 1.286; fill: none;" transform="matrix(1, 0, 0, 1, 913.638904, 31.833392)"/>
  <path d="M 473.983 479.743 C 475.18 479.743 476.496 479.882 477.632 479.882" style="stroke: rgb(0, 0, 0); stroke-width: 1.286; fill: none;" transform="matrix(1, 0, 0, 1, 913.638904, 31.833392)"/>
  <path d="M 476.284 474.078 C 477.039 474.078 480.362 474.628 480.99 473.797" style="stroke: rgb(0, 0, 0); stroke-width: 1.286; fill: none;" transform="matrix(1, 0, 0, 1, 913.638904, 31.833392)"/>
  <path d="M 478.161 467.831 C 478.346 467.406 480.194 465.339 480.194 465.199" style="stroke: rgb(0, 0, 0); stroke-width: 1.286; fill: none;" transform="matrix(1, 0, 0, 1, 913.638904, 31.833392)"/>
  <path d="M 472.187 487.463 C 473.248 487.797 476.001 489.937 476.001 488.296" style="stroke: rgb(0, 0, 0); fill: rgb(216, 216, 216); stroke-width: 1.286;" transform="matrix(1, 0, 0, 1, 913.638904, 31.833392)"/>
  <path d="M 432.546 487.362 C 430.786 487.362 429.899 487.678 428.65 489.288" style="stroke: rgb(0, 0, 0); stroke-width: 1.286; fill: none;" transform="matrix(1, 0, 0, 1, 913.638904, 31.833392)"/>
  <path d="M 448.226 451.62 C 447.795 450.015 446.405 446.809 446.132 444.855 C 446.052 444.278 445.984 440.249 445.984 441.478" style="stroke: rgb(0, 0, 0); stroke-width: 1.286; fill: none;" transform="matrix(1, 0, 0, 1, 913.638904, 31.833392)"/>
  <path d="M 450.658 459.85 C 450.227 459.452 447.663 455.652 447.487 455.652" style="stroke: rgb(0, 0, 0); stroke-width: 1.286; fill: none;" transform="matrix(1, 0, 0, 1, 913.638904, 31.833392)"/>
  <path d="M 430.974 460.048 C 430.016 459.184 428.196 457.479 427.18 457.479" style="stroke: rgb(0, 0, 0); stroke-width: 1.286; fill: none;" transform="matrix(1, 0, 0, 1, 913.638904, 31.833392)"/>
  <path d="M 428.018 469.643 C 426.361 469.643 423.057 467.892 423.057 470.058" style="stroke: rgb(0, 0, 0); stroke-width: 1.286; fill: none;" transform="matrix(1, 0, 0, 1, 913.638904, 31.833392)"/>
  <path d="M 428.432 476.576 C 427.055 476.67 422.976 477.481 424.354 477.481" style="stroke: rgb(0, 0, 0); stroke-width: 1.286; fill: none;" transform="matrix(1, 0, 0, 1, 913.638904, 31.833392)"/>
  <path d="M 427.809 482.608 C 429.273 481.549 430.608 480.755 432.302 480.755" style="stroke: rgb(0, 0, 0); stroke-width: 1.286; fill: none;" transform="matrix(1, 0, 0, 1, 913.638904, 31.833392)"/>
</svg>