<?xml version="1.0" encoding="utf-8"?>
<svg viewBox="499.182 438.256 58.509 58.091" width="58.509" height="58.091" xmlns="http://www.w3.org/2000/svg">
  <path d="M 537.277 444.191 C 538.537 436.223 513.068 438.417 520.165 447.1 C 521.718 449 532.184 448.383 528.197 456.714 C 526.972 459.274 530.444 487.558 530.108 487.558" style="fill: none; stroke-width: 2.718; stroke: rgb(137, 137, 137);"/>
  <path opacity="0.9921568627450981" d="M 527.585 454.542 C 549.813 454.983 553.187 473.744 553.109 481.166 C 553.031 488.588 551.836 491.079 540.382 491.081 C 536.962 491.082 515.948 491.265 513.468 491.306 C 505.542 491.436 505.012 486.584 504.419 480.96 C 503.826 475.336 505.779 454.11 527.585 454.542 Z" style="fill-opacity: 1; fill-rule: nonzero; stroke-dasharray: none; stroke-dashoffset: 0px; stroke-linecap: butt; stroke-linejoin: miter; stroke-miterlimit: 4; stroke-opacity: 1; paint-order: normal; vector-effect: none; opacity: 1; mix-blend-mode: normal; isolation: auto; stroke-width: 0; stroke: rgb(0, 0, 0); fill: rgb(113, 112, 112);"/>
  <path stroke="rgb(255,0,0)" d="M 516.984 471.469 C 517.401 471.333 518.044 471.244 518.498 471.469 C 518.941 471.689 519.419 472.128 519.681 472.774 C 519.969 473.488 520.161 474.784 520.059 475.691 C 519.957 476.601 519.598 477.731 519.066 478.225 C 518.451 478.795 516.933 478.676 516.417 478.532 C 516.133 478.453 516.056 478.347 515.896 478.071 C 515.682 477.702 515.428 476.985 515.328 476.305 C 515.217 475.548 515.175 474.419 515.328 473.695 C 515.469 473.036 515.836 472.459 516.133 472.083 C 516.394 471.753 516.641 471.581 516.984 471.469 Z M 537.241 471.479 C 537.589 471.369 537.945 471.419 538.282 471.632 C 538.656 471.868 539.124 472.282 539.37 472.937 C 539.658 473.707 539.865 475.376 539.749 476.161 C 539.657 476.771 539.312 477.097 539.039 477.466 C 538.762 477.841 538.488 478.2 538.092 478.388 C 537.612 478.616 536.748 478.752 536.296 478.541 C 535.935 478.374 535.684 478.076 535.491 477.543 C 535.24 476.854 534.99 475.35 535.112 474.472 C 535.228 473.655 535.729 472.906 536.106 472.4 C 536.448 471.941 536.865 471.598 537.241 471.479 Z M 527.013 481.191 C 527.704 481.071 528.696 480.924 529.284 481.191 C 529.754 481.404 530.144 481.828 530.372 482.342 C 530.59 482.836 530.698 483.604 530.656 484.185 C 530.614 484.755 530.354 485.42 530.135 485.797 C 529.947 486.119 529.844 486.268 529.473 486.411 C 528.774 486.68 526.526 486.851 525.783 486.564 C 525.35 486.397 525.173 486.147 524.979 485.72 C 524.759 485.239 524.551 484.368 524.6 483.724 C 524.651 483.062 524.94 482.229 525.31 481.805 C 525.716 481.339 526.392 481.299 527.013 481.191 Z" style="stroke: rgb(129, 151, 57); stroke-width: 0;"/>
  <path opacity="0.9921568627450981" d="M 527.364 460.962 C 547.464 460.943 554.161 486.39 543.673 493.788 C 536.242 499.03 521.206 498.1 513.458 493.489 C 504.651 488.248 508.231 460.981 527.364 460.962 Z" style="fill-opacity: 1; fill-rule: nonzero; stroke-dasharray: none; stroke-dashoffset: 0px; stroke-linecap: butt; stroke-linejoin: miter; stroke-miterlimit: 4; stroke-opacity: 1; paint-order: normal; vector-effect: none; opacity: 1; mix-blend-mode: normal; isolation: auto; stroke-width: 0; stroke: rgb(0, 0, 0); fill: rgb(182, 182, 182);"/>
  <path stroke="rgb(255,0,0)" d="M 517.801 475.874 C 518.218 475.738 518.862 475.649 519.315 475.874 C 519.758 476.094 520.236 476.533 520.497 477.179 C 520.786 477.893 520.978 479.189 520.876 480.096 C 520.774 481.006 520.415 482.136 519.882 482.63 C 519.268 483.2 517.75 483.081 517.234 482.937 C 516.949 482.858 516.873 482.752 516.713 482.476 C 516.5 482.107 516.245 481.39 516.145 480.71 C 516.035 479.953 515.992 478.824 516.145 478.1 C 516.285 477.441 516.653 476.864 516.949 476.488 C 517.212 476.158 517.458 475.986 517.801 475.874 Z M 538.058 475.884 C 538.406 475.774 538.761 475.824 539.099 476.037 C 539.473 476.273 539.942 476.687 540.187 477.342 C 540.475 478.112 540.682 479.781 540.565 480.566 C 540.475 481.176 540.13 481.502 539.856 481.871 C 539.579 482.246 539.305 482.605 538.91 482.793 C 538.429 483.021 537.566 483.157 537.112 482.946 C 536.752 482.779 536.502 482.481 536.308 481.948 C 536.057 481.259 535.806 479.755 535.929 478.877 C 536.044 478.06 536.547 477.311 536.923 476.805 C 537.264 476.346 537.682 476.003 538.058 475.884 Z" style="stroke: rgb(129, 151, 57); stroke-width: 0;"/>
  <path stroke-width="0" opacity="0.9921568627450981" d="M 544.154 473.995 C 568.294 472.372 555.155 441.986 543.104 444.17 C 520.157 448.329 536.567 474.505 544.154 473.995 Z" style="fill-opacity: 1; fill-rule: nonzero; stroke-dasharray: none; stroke-dashoffset: 0px; stroke-linecap: butt; stroke-linejoin: miter; stroke-miterlimit: 4; stroke-opacity: 1; stroke-width: 7px; paint-order: normal; vector-effect: none; opacity: 1; mix-blend-mode: normal; isolation: auto; fill: rgb(182, 182, 182);" transform="matrix(-1, 0, 0, -1, 1089.040894, 918.060089)"/>
  <path stroke-width="0" opacity="0.9921568627450981" d="M 511.986 445.215 C 536.126 446.838 522.987 477.224 510.936 475.04 C 487.989 470.881 504.399 444.705 511.986 445.215 Z" style="fill-opacity: 1; fill-rule: nonzero; stroke-dasharray: none; stroke-dashoffset: 0px; stroke-linecap: butt; stroke-linejoin: miter; stroke-miterlimit: 4; stroke-opacity: 1; stroke-width: 7px; paint-order: normal; vector-effect: none; opacity: 1; mix-blend-mode: normal; isolation: auto; fill: rgb(182, 182, 182);"/>
  <path stroke="rgb(255,0,0)" d="M 527.81 483.97 C 528.501 483.85 529.492 483.703 530.08 483.97 C 530.551 484.183 530.94 484.607 531.169 485.121 C 531.387 485.615 531.494 486.383 531.453 486.964 C 531.411 487.534 531.151 488.199 530.932 488.576 C 530.744 488.898 530.641 489.047 530.27 489.19 C 529.572 489.459 527.324 489.63 526.58 489.343 C 526.146 489.176 525.97 488.926 525.776 488.499 C 525.557 488.018 525.348 487.147 525.397 486.503 C 525.448 485.841 525.737 485.008 526.107 484.584 C 526.514 484.118 527.188 484.078 527.81 483.97 Z" style="stroke: rgb(129, 151, 57); stroke-width: 0;"/>
</svg>