<?xml version="1.0" encoding="utf-8"?>
<svg viewBox="466.076 493.127 62.663 57.8" width="62.663px" height="57.8px" xmlns="http://www.w3.org/2000/svg">
  <path stroke="rgb(255,0,0)" opacity="0.996078431372549" d="M 213.059 441.37 C 215.756 440.947 217.961 441.016 220.492 441.37 C 223.137 441.739 226.22 442.559 228.599 443.637 C 230.737 444.605 232.383 445.713 234.231 447.322 C 236.256 449.085 238.446 451.196 240.2 453.983 C 242.141 457.068 244.222 462.274 245.155 465.321 C 245.818 467.486 245.892 468.624 246.056 470.707 C 246.254 473.218 246.411 476.884 246.056 479.494 C 245.739 481.827 245.147 483.799 244.253 485.73 C 243.329 487.73 242.138 489.758 240.537 491.257 C 238.791 492.894 236.69 493.893 234.005 494.942 C 230.612 496.268 226.182 497.424 221.392 498.06 C 215.748 498.809 207.011 499.149 202.022 498.627 C 198.391 498.247 195.886 497.68 193.462 496.359 C 191.273 495.166 189.458 493.684 187.944 491.399 C 186.267 488.867 184.797 484.556 184.115 481.478 C 183.533 478.856 183.587 475.308 183.665 474.108 C 183.697 473.592 183.64 473.672 183.67 473.258 C 183.718 472.575 183.505 471.528 183.665 470.14 C 183.915 467.969 184.812 463.987 186.142 461.07 C 187.6 457.871 189.723 454.531 192.336 451.857 C 195.204 448.923 199.365 446.247 202.922 444.487 C 206.276 442.829 209.968 441.854 213.059 441.37 Z" style="fill-opacity: 1; fill-rule: nonzero; stroke: rgb(0, 0, 0); stroke-dasharray: none; stroke-dashoffset: 0px; stroke-linecap: butt; stroke-linejoin: miter; stroke-miterlimit: 4; stroke-opacity: 1; paint-order: normal; vector-effect: none; opacity: 1; mix-blend-mode: normal; isolation: auto; stroke-width: 0;" transform="matrix(1, 0, 0, 1, 282.472046, 52.048824)"/>
  <path stroke="rgb(255,0,0)" opacity="0.996078431372549" d="M 213.53 445.781 C 215.627 445.539 217.341 445.579 219.308 445.781 C 221.363 445.992 223.759 446.461 225.609 447.077 C 227.27 447.63 228.549 448.263 229.986 449.183 C 231.559 450.191 233.262 451.397 234.624 452.99 C 236.133 454.753 237.751 457.728 238.476 459.469 C 238.991 460.706 239.049 461.357 239.176 462.547 C 239.329 463.982 239.452 466.077 239.176 467.569 C 238.929 468.902 238.47 470.029 237.775 471.133 C 237.057 472.275 236.131 473.434 234.887 474.291 C 233.53 475.226 231.897 475.797 229.81 476.397 C 227.173 477.155 223.73 477.816 220.007 478.179 C 215.62 478.607 208.83 478.801 204.952 478.503 C 202.131 478.286 200.184 477.962 198.3 477.207 C 196.599 476.525 195.188 475.678 194.011 474.372 C 192.709 472.925 191.566 470.462 191.036 468.702 C 190.584 467.204 190.626 465.177 190.685 464.491 C 190.711 464.196 190.667 464.242 190.69 464.005 C 190.727 463.614 190.561 463.016 190.685 462.223 C 190.88 460.982 191.577 458.707 192.611 457.039 C 193.745 455.212 195.394 453.303 197.425 451.775 C 199.654 450.098 202.888 448.569 205.653 447.563 C 208.259 446.615 211.129 446.058 213.53 445.781 Z" style="fill-opacity: 1; fill-rule: nonzero; stroke: rgb(0, 0, 0); stroke-dasharray: none; stroke-dashoffset: 0px; stroke-linecap: butt; stroke-linejoin: miter; stroke-miterlimit: 4; stroke-opacity: 1; paint-order: normal; vector-effect: none; opacity: 1; mix-blend-mode: normal; isolation: auto; stroke-width: 0; fill: rgb(219, 16, 16);" transform="matrix(1, 0, 0, 1, 282.472046, 52.048824)"/>
  <path stroke="rgb(255,0,0)" opacity="0.996078431372549" d="M 211.472 452.758 C 213.569 452.516 217.911 452.571 219.878 452.773 C 221.934 452.985 224.145 453.475 225.995 454.091 C 227.656 454.644 228.802 454.992 230.239 455.911 C 231.812 456.919 233.094 457.518 234.456 459.111 C 235.964 460.874 236.28 460.085 237.005 461.826 C 237.52 463.063 239.049 463.213 239.176 464.403 C 239.329 465.838 239.452 467.933 239.176 469.425 C 238.929 470.758 238.47 471.885 237.775 472.989 C 237.057 474.132 236.131 475.29 234.887 476.148 C 233.53 477.083 231.897 477.654 229.81 478.253 C 227.173 479.011 223.73 479.672 220.007 480.035 C 215.62 480.463 208.83 480.657 204.952 480.359 C 202.131 480.142 200.184 479.818 198.3 479.063 C 196.599 478.382 195.188 477.535 194.011 476.229 C 192.709 474.782 191.566 472.318 191.036 470.559 C 190.584 469.06 190.626 467.033 190.685 466.347 C 190.711 466.052 190.667 466.098 190.69 465.861 C 190.727 465.471 190.561 464.872 190.685 464.08 C 190.88 462.839 192.291 462.654 193.325 460.987 C 194.458 459.159 195.282 459.028 197.313 457.5 C 199.543 455.823 200.354 455.732 203.119 454.726 C 205.724 453.779 209.071 453.034 211.472 452.758 Z" style="fill-opacity: 1; fill-rule: nonzero; stroke: rgb(0, 0, 0); stroke-dasharray: none; stroke-dashoffset: 0px; stroke-linecap: butt; stroke-linejoin: miter; stroke-miterlimit: 4; stroke-opacity: 1; paint-order: normal; vector-effect: none; opacity: 1; mix-blend-mode: normal; isolation: auto; stroke-width: 0; fill: rgb(91, 18, 39);" transform="matrix(1, 0, 0, 1, 282.472046, 52.048824)"/>
  <path stroke="rgb(255,0,0)" opacity="0.9411764705882353" d="M 201.74 464.769 C 202.327 464.767 204.874 465.297 205.395 465.937 C 205.719 466.335 205.74 467.033 205.557 467.423 C 205.336 467.896 204.503 468.382 203.852 468.379 C 203.075 468.376 201.574 467.575 201.171 466.999 C 200.909 466.623 200.965 466.077 201.009 465.724 C 201.047 465.425 201.198 465.14 201.333 464.981 C 201.45 464.846 201.492 464.77 201.74 464.769 Z M 210.36 462.46 C 210.956 462.16 212.714 462.19 213.203 462.673 C 213.573 463.038 213.624 464.004 213.528 464.478 C 213.443 464.895 213.179 465.247 212.797 465.433 C 212.258 465.696 210.888 465.825 210.36 465.433 C 209.918 465.106 209.598 464.144 209.629 463.628 C 209.657 463.171 209.945 462.67 210.36 462.46 Z M 205.279 457.99 C 205.881 457.504 207.64 457.73 208.203 457.99 C 208.539 458.145 208.65 458.456 208.771 458.733 C 208.884 458.991 208.976 459.281 208.933 459.583 C 208.884 459.945 208.737 460.479 208.365 460.751 C 207.805 461.159 206.095 461.392 205.441 461.175 C 204.991 461.026 204.62 460.673 204.548 460.22 C 204.461 459.673 204.776 458.395 205.279 457.99 Z M 213.876 456.649 C 214.439 456.748 215.163 457.231 215.419 457.604 C 215.596 457.862 215.633 458.139 215.581 458.454 C 215.516 458.862 215.295 459.613 214.851 459.834 C 214.211 460.152 212.154 459.822 211.683 459.303 C 211.37 458.958 211.455 458.206 211.521 457.817 C 211.575 457.498 211.675 457.26 211.927 457.074 C 212.309 456.791 213.28 456.544 213.876 456.649 Z M 222.02 463.208 C 222.571 463.3 223.298 463.903 223.564 464.376 C 223.773 464.748 223.798 465.275 223.726 465.65 C 223.656 466.015 223.499 466.395 223.158 466.605 C 222.64 466.923 221.125 467.015 220.558 466.818 C 220.184 466.687 219.977 466.404 219.828 466.075 C 219.674 465.736 219.594 465.175 219.665 464.8 C 219.735 464.435 219.931 464.095 220.234 463.845 C 220.632 463.514 221.462 463.114 222.02 463.208 Z M 219.025 457.263 C 219.314 457.273 220.152 457.579 220.406 458.006 C 220.646 458.411 220.684 459.097 220.568 459.705 C 220.424 460.456 219.753 461.756 219.35 462.147 C 219.078 462.41 218.803 462.451 218.537 462.359 C 218.234 462.254 217.729 461.944 217.644 461.404 C 217.517 460.593 218.414 457.981 218.7 457.475 C 218.82 457.263 218.861 457.257 219.025 457.263 Z M 213.745 467.728 C 214.237 467.648 215.538 467.72 215.938 468.153 C 216.257 468.498 216.326 469.305 216.262 469.745 C 216.207 470.134 216.016 470.494 215.694 470.701 C 215.246 470.988 214.074 471.084 213.583 470.913 C 213.229 470.79 213.001 470.499 212.851 470.17 C 212.698 469.832 212.631 469.245 212.689 468.896 C 212.739 468.591 212.921 468.346 213.095 468.153 C 213.272 467.955 213.43 467.779 213.745 467.728 Z M 208.087 469.019 C 208.56 468.878 209.909 469.429 210.117 469.975 C 210.305 470.464 209.853 471.643 209.549 471.992 C 209.301 472.278 208.896 472.303 208.574 472.205 C 208.218 472.095 207.715 471.624 207.519 471.249 C 207.354 470.935 207.286 470.535 207.356 470.187 C 207.437 469.79 207.72 469.13 208.087 469.019 Z M 198.653 460.867 C 199.068 460.808 200.057 460.881 200.359 461.292 C 200.636 461.667 200.76 462.649 200.522 463.097 C 200.23 463.646 198.817 464.305 198.329 464.052 C 197.895 463.828 197.584 462.52 197.597 462.035 C 197.607 461.696 197.83 461.486 198.004 461.292 C 198.18 461.094 198.361 460.909 198.653 460.867 Z M 197.015 468.886 C 197.417 468.647 198.091 468.691 198.639 468.886 C 199.253 469.103 200.324 469.655 200.508 470.266 C 200.673 470.816 200.243 471.934 199.939 472.283 C 199.69 472.569 199.385 472.559 198.964 472.496 C 198.338 472.403 196.832 471.863 196.446 471.328 C 196.188 470.969 196.201 470.45 196.284 470.054 C 196.373 469.632 196.665 469.094 197.015 468.886 Z M 203.717 470.92 C 204.211 470.984 205.912 471.654 206.235 472.3 C 206.482 472.793 206.327 473.733 206.072 474.105 C 205.816 474.48 205.2 474.601 204.692 474.53 C 204.083 474.445 202.982 473.832 202.661 473.362 C 202.445 473.045 202.428 472.648 202.499 472.3 C 202.58 471.903 202.997 471.352 203.23 471.132 C 203.398 470.973 203.464 470.887 203.717 470.92 Z M 211.838 472.418 C 212.385 472.211 214.066 472.603 214.355 473.161 C 214.594 473.622 214.307 474.797 213.949 475.179 C 213.561 475.592 212.465 475.553 212 475.391 C 211.655 475.271 211.417 474.958 211.269 474.647 C 211.127 474.351 211.035 473.934 211.106 473.586 C 211.188 473.189 211.441 472.568 211.838 472.418 Z M 221.938 471.663 C 222.63 471.751 223.76 472.073 223.968 472.619 C 224.156 473.108 223.87 474.206 223.4 474.636 C 222.769 475.213 220.67 475.271 219.989 475.061 C 219.585 474.936 219.405 474.605 219.258 474.317 C 219.129 474.065 219.044 473.782 219.096 473.468 C 219.161 473.06 219.434 472.393 219.826 472.088 C 220.307 471.714 221.249 471.576 221.938 471.663 Z M 216.232 463.869 C 216.698 463.929 217.807 464.795 218.1 465.249 C 218.283 465.535 218.304 465.797 218.262 466.099 C 218.211 466.461 217.97 467.035 217.693 467.267 C 217.407 467.506 216.915 467.592 216.557 467.479 C 216.182 467.361 215.731 466.918 215.5 466.523 C 215.29 466.162 215.165 465.636 215.176 465.249 C 215.186 464.899 215.324 464.524 215.5 464.293 C 215.676 464.064 215.917 463.829 216.232 463.869 Z M 227.273 467.081 C 227.717 466.969 228.567 466.888 229.06 467.081 C 229.491 467.251 229.963 467.589 230.116 468.037 C 230.273 468.5 230.288 469.453 229.953 469.842 C 229.506 470.362 227.713 470.45 227.11 470.267 C 226.727 470.151 226.527 469.834 226.38 469.524 C 226.238 469.227 226.188 468.8 226.217 468.462 C 226.245 468.128 226.366 467.737 226.542 467.506 C 226.718 467.276 226.95 467.164 227.273 467.081 Z M 226.139 458.83 C 226.48 458.621 227.003 458.624 227.437 458.83 C 227.951 459.074 228.723 459.91 228.98 460.423 C 229.163 460.786 229.214 461.137 229.143 461.485 C 229.062 461.882 228.815 462.564 228.412 462.653 C 227.815 462.784 225.979 461.634 225.569 461.06 C 225.328 460.721 225.336 460.346 225.407 459.998 C 225.488 459.601 225.812 459.03 226.139 458.83 Z M 231.853 460.138 C 232.189 459.999 232.9 459.883 233.234 460.351 C 233.718 461.032 233.979 464.083 233.883 464.916 C 233.833 465.352 233.692 465.497 233.478 465.66 C 233.216 465.858 232.638 465.959 232.34 465.872 C 232.096 465.801 231.925 465.728 231.772 465.341 C 231.481 464.608 231.125 461.699 231.284 460.882 C 231.373 460.425 231.583 460.251 231.853 460.138 Z M 231.369 470.256 C 231.855 470.256 232.443 470.735 232.588 471.212 C 232.739 471.711 232.545 472.701 232.182 473.229 C 231.748 473.859 230.461 474.572 229.907 474.503 C 229.499 474.453 229.144 473.982 229.014 473.548 C 228.873 473.08 228.889 472.252 229.176 471.743 C 229.538 471.101 230.763 470.256 231.369 470.256 Z M 222.184 455.653 C 222.534 455.634 223.695 455.829 224.052 456.29 C 224.368 456.698 224.449 457.615 224.377 458.095 C 224.316 458.5 224.06 458.856 223.809 459.051 C 223.549 459.251 223.167 459.375 222.833 459.263 C 222.438 459.131 221.839 458.571 221.615 458.095 C 221.414 457.669 221.386 456.998 221.452 456.609 C 221.507 456.29 221.72 456.025 221.859 455.866 C 221.965 455.743 222.004 455.663 222.184 455.653 Z" style="fill-opacity: 1; fill-rule: nonzero; stroke: rgb(0, 0, 0); stroke-dasharray: none; stroke-dashoffset: 0px; stroke-linecap: butt; stroke-linejoin: miter; stroke-miterlimit: 4; stroke-opacity: 1; paint-order: normal; vector-effect: none; opacity: 1; mix-blend-mode: normal; isolation: auto; stroke-width: 0; fill: rgba(59, 11, 25, 0.83);" transform="matrix(1, 0, 0, 1, 282.472046, 52.048824)"/>
  <path stroke="rgb(255,0,0)" opacity="0.9647058823529412" d="M 202.116 469.149 C 203.686 468.419 208.568 468.419 210.138 469.149 C 211.094 469.593 211.598 470.326 211.779 471.294 C 211.994 472.446 211.855 474.85 210.867 475.822 C 209.502 477.167 204.581 477.87 202.846 476.775 C 201.433 475.884 200.394 472.623 200.476 471.294 C 200.536 470.302 201.161 469.593 202.116 469.149 Z M 221.605 459.703 C 223.504 459.221 226.838 459.141 228.533 459.703 C 229.775 460.116 230.692 460.884 231.268 461.849 C 231.802 462.745 232.134 464.128 231.997 465.185 C 231.855 466.277 231.442 467.532 230.356 468.283 C 228.602 469.495 222.76 470.291 220.876 469.713 C 219.757 469.37 219.371 468.645 218.87 467.568 C 218.245 466.225 217.287 463.162 217.776 461.849 C 218.251 460.576 220.056 460.097 221.605 459.703 Z" style="fill-opacity: 1; fill-rule: nonzero; stroke: rgb(0, 0, 0); stroke-dasharray: none; stroke-dashoffset: 0px; stroke-linecap: butt; stroke-linejoin: miter; stroke-miterlimit: 4; stroke-opacity: 1; paint-order: normal; vector-effect: none; opacity: 1; mix-blend-mode: normal; isolation: auto; stroke-width: 0; fill: rgba(255, 255, 255, 0.78);" transform="matrix(1, 0, 0, 1, 282.472046, 52.048824)"/>
  <path fill="rgb(255,0,0)" stroke="rgb(255,0,0)" stroke-width="0" opacity="0.9529411764705882" d="M 207.771 483.374 C 210.426 482.998 216.219 486.629 217.075 488.342 C 217.552 489.295 216.948 490.28 216.42 491.254 C 215.711 492.562 213.408 494.183 212.62 495.195 C 212.127 495.826 212.263 496.481 211.702 496.736 C 210.832 497.132 208.822 496.692 207.247 496.051 C 205.405 495.302 202.137 493.274 201.35 492.111 C 200.935 491.498 201.009 490.895 201.088 490.398 C 201.161 489.934 201.294 489.761 201.743 489.199 C 202.701 487.998 205.409 483.709 207.771 483.374 Z M 208.426 487.143 C 207.042 487.37 204.62 489.579 204.757 490.569 C 204.909 491.671 208.798 493.569 210.261 493.31 C 211.479 493.095 212.71 490.883 213.144 490.226 C 213.352 489.914 213.545 489.8 213.406 489.541 C 213.069 488.917 209.903 486.9 208.426 487.143 Z M 224.778 482.439 C 227.166 481.722 233.069 484.683 233.82 486.036 C 234.209 486.737 233.664 487.56 233.165 488.263 C 232.459 489.256 229.965 490.264 229.364 491.004 C 229.048 491.395 229.117 491.764 228.971 492.032 C 228.85 492.255 228.734 492.285 228.578 492.546 C 228.334 492.954 227.992 494.074 227.661 494.43 C 227.413 494.697 227.336 494.848 226.874 494.773 C 225.776 494.593 221.093 492.302 220.192 491.004 C 219.685 490.275 219.645 489.692 219.929 488.777 C 220.424 487.187 222.678 483.069 224.778 482.439 Z M 225.433 486.207 C 224.623 486.49 223.472 488.264 223.599 488.948 C 223.726 489.637 225.374 490.494 226.22 490.319 C 227.125 490.131 228.946 488.26 228.84 487.578 C 228.733 486.878 226.328 485.896 225.433 486.207 Z M 188.444 477.207 C 189.072 477.113 190.424 476.929 191.589 477.55 C 193.167 478.39 195.976 480.859 196.962 482.86 C 197.783 484.527 198.028 486.661 197.748 488.342 C 197.467 490.032 196.008 492.262 195.258 492.968 C 194.79 493.408 194.505 493.412 193.948 493.31 C 193.122 493.158 191.626 492.902 190.672 491.426 C 189.217 489.174 187.281 480.67 187.265 478.749 C 187.258 477.975 187.57 477.806 187.788 477.55 C 187.975 477.331 188.099 477.258 188.444 477.207 Z M 190.41 480.633 C 189.894 481.151 191.662 487.909 192.507 489.199 C 192.984 489.928 193.668 490.216 194.079 489.884 C 194.637 489.433 195.508 486.832 195.127 485.43 C 194.659 483.706 190.897 480.143 190.41 480.633 Z M 240.796 472.2 C 242.26 471.283 244.634 472.385 245.382 473.399 C 246.001 474.237 245.76 475.817 245.645 477.168 C 245.513 478.702 245.038 480.962 244.465 482.136 C 244.011 483.068 243.217 483.406 242.762 484.02 C 242.374 484.544 242.396 485.223 241.845 485.562 C 241.01 486.076 238.801 486.357 237.651 485.905 C 236.623 485.501 235.219 484.757 235.161 483.335 C 235.07 481.065 238.795 473.453 240.796 472.2 Z M 241.713 475.626 C 240.758 476.385 237.834 481.141 238.044 482.136 C 238.194 482.843 239.886 482.954 240.665 482.479 C 241.581 481.921 242.68 479.628 243.024 478.367 C 243.292 477.387 243.312 476.04 243.024 475.626 C 242.785 475.283 242.228 475.218 241.713 475.626 Z" style="fill: rgba(254, 246, 227, 0.23); fill-opacity: 1; fill-rule: nonzero; stroke: rgb(0, 0, 0); stroke-dasharray: none; stroke-dashoffset: 0px; stroke-linecap: butt; stroke-linejoin: miter; stroke-miterlimit: 4; stroke-opacity: 1; stroke-width: 2.25; paint-order: normal; vector-effect: none; opacity: 1; mix-blend-mode: normal; isolation: auto;" transform="matrix(1, 0, 0, 1, 282.472046, 52.048824)"/>
</svg>